<mxfile host="app.diagrams.net" modified="2023-05-22T13:23:15.662Z" agent="Mozilla/5.0 (X11; Linux x86_64) AppleWebKit/537.36 (KHTML, like Gecko) Chrome/113.0.0.0 Safari/537.36" etag="OoSgFY5p5cccLF-t_-o5" version="21.3.2" type="github">
  <diagram id="C5RBs43oDa-KdzZeNtuy" name="Page-1">
    <mxGraphModel dx="1509" dy="878" grid="1" gridSize="10" guides="1" tooltips="1" connect="1" arrows="1" fold="1" page="1" pageScale="1" pageWidth="827" pageHeight="1169" math="0" shadow="0">
      <root>
        <mxCell id="WIyWlLk6GJQsqaUBKTNV-0" />
        <mxCell id="WIyWlLk6GJQsqaUBKTNV-1" parent="WIyWlLk6GJQsqaUBKTNV-0" />
        <mxCell id="zkfFHV4jXpPFQw0GAbJ--0" value="Entreprise" style="swimlane;fontStyle=2;align=center;verticalAlign=top;childLayout=stackLayout;horizontal=1;startSize=26;horizontalStack=0;resizeParent=1;resizeLast=0;collapsible=1;marginBottom=0;rounded=0;shadow=0;strokeWidth=1;" parent="WIyWlLk6GJQsqaUBKTNV-1" vertex="1">
          <mxGeometry x="20" y="40" width="300" height="650" as="geometry">
            <mxRectangle x="230" y="140" width="160" height="26" as="alternateBounds" />
          </mxGeometry>
        </mxCell>
        <mxCell id="zkfFHV4jXpPFQw0GAbJ--4" value="" style="line;html=1;strokeWidth=1;align=left;verticalAlign=middle;spacingTop=-1;spacingLeft=3;spacingRight=3;rotatable=0;labelPosition=right;points=[];portConstraint=eastwest;strokeColor=none;" parent="zkfFHV4jXpPFQw0GAbJ--0" vertex="1">
          <mxGeometry y="26" width="300" height="8" as="geometry" />
        </mxCell>
        <mxCell id="zkfFHV4jXpPFQw0GAbJ--5" value=" {&#xa;    &quot;id_entreprise&quot;: &quot;1375&quot;,&#xa;    &quot;numero&quot;: &quot;1&quot;,&#xa;    &quot;numero_complet&quot;: &quot;&quot;,&#xa;    &quot;numero_compte_client&quot;: &quot;&quot;,&#xa;    &quot;siret&quot;: &quot;1678637863 00013&quot;,&#xa;    &quot;raison_sociale&quot;: &quot;EDF&quot;,&#xa;    &quot;appellation&quot;: &quot;&quot;,&#xa;    &quot;sigle&quot;: &quot;Entreprise privée&quot;,&#xa;    &quot;statut_juridique&quot;: &quot;SARL&quot;,&#xa;    &quot;telephone&quot;: &quot;04 76 76 54 53&quot;,&#xa;    &quot;fax&quot;: &quot;04 67 65 53 64&quot;,&#xa;    &quot;site_internet&quot;: &quot;&quot;,&#xa;    &quot;email_standard&quot;: &quot;&quot;,&#xa;    &quot;adresse&quot;: &quot;8 AVenue du Gal &quot;,&#xa;    &quot;code_postal&quot;: &quot;75002&quot;,&#xa;    &quot;ville&quot;: &quot;Paris&quot;,&#xa;    &quot;pays&quot;: &quot;France&quot;,&#xa;    &quot;facturation_raison_sociale&quot;: &quot;&quot;,&#xa;    &quot;facturation_adresse&quot;: &quot;&quot;,&#xa;    &quot;facturation_code_postal&quot;: &quot;&quot;,&#xa;    &quot;facturation_ville&quot;: &quot;&quot;,&#xa;    &quot;facturation_pays&quot;: &quot;&quot;,&#xa;    &quot;mode_financement_par_defaut&quot;: &quot;entreprise&quot;,&#xa;    &quot;nb_employes&quot;: &quot;0&quot;,&#xa;    &quot;enjeu&quot;: &quot;0&quot;,&#xa;    &quot;client&quot;: &quot;0&quot;,&#xa;    &quot;id_contact&quot;: &quot;0&quot;,&#xa;    &quot;id_contact_secondaire&quot;: &quot;0&quot;,&#xa;    &quot;commentaires&quot;: &quot;&quot;,&#xa;    &quot;particulier&quot;: &quot;0&quot;,&#xa;    &quot;id_externe&quot;: &quot;&quot;,&#xa;    &quot;tva_intra&quot;: &quot;16786387 00013&quot;,&#xa;    &quot;id_centre_de_formation&quot;: &quot;1,2&quot;,&#xa;    &quot;ical_url&quot;: &quot;https://public.dendreo.com/demo/ical/nxlfbn57t75shd1q1h3flzsk5hwctyv77Anfhdxsl4tbhrjz8wb1&quot;,&#xa;    &quot;ape_code&quot;: &quot;3511Z&quot;,&#xa;    &quot;code_naf&quot;: {&#xa;        &quot;id_code_naf&quot;: &quot;639&quot;,&#xa;        &quot;code_naf&quot;: &quot;3511Z&quot;,&#xa;        &quot;intitule&quot;: &quot;Production d&#39;électricité&quot;&#xa;    }&#xa;  }" style="text;align=left;verticalAlign=top;spacingLeft=4;spacingRight=4;overflow=hidden;rotatable=0;points=[[0,0.5],[1,0.5]];portConstraint=eastwest;" parent="zkfFHV4jXpPFQw0GAbJ--0" vertex="1">
          <mxGeometry y="34" width="300" height="616" as="geometry" />
        </mxCell>
        <mxCell id="ez0UlG1S_WpzTPGZrJlj-1" value="Partcipant" style="swimlane;fontStyle=2;align=center;verticalAlign=top;childLayout=stackLayout;horizontal=1;startSize=26;horizontalStack=0;resizeParent=1;resizeLast=0;collapsible=1;marginBottom=0;rounded=0;shadow=0;strokeWidth=1;" vertex="1" parent="WIyWlLk6GJQsqaUBKTNV-1">
          <mxGeometry x="1030" y="50" width="600" height="520" as="geometry">
            <mxRectangle x="230" y="140" width="160" height="26" as="alternateBounds" />
          </mxGeometry>
        </mxCell>
        <mxCell id="ez0UlG1S_WpzTPGZrJlj-2" value="" style="line;html=1;strokeWidth=1;align=left;verticalAlign=middle;spacingTop=-1;spacingLeft=3;spacingRight=3;rotatable=0;labelPosition=right;points=[];portConstraint=eastwest;strokeColor=none;" vertex="1" parent="ez0UlG1S_WpzTPGZrJlj-1">
          <mxGeometry y="26" width="600" height="8" as="geometry" />
        </mxCell>
        <mxCell id="ez0UlG1S_WpzTPGZrJlj-3" value="[&#xa;  {&#xa;    &quot;id_participant&quot;: &quot;17&quot;,&#xa;    &quot;id_add&quot;: &quot;0&quot;,&#xa;    &quot;id_edit&quot;: &quot;0&quot;,&#xa;    &quot;id_delete&quot;: &quot;0&quot;,&#xa;    &quot;civilite&quot;: &quot;Mme&quot;,&#xa;    &quot;nom&quot;: &quot;Duru &quot;,&#xa;    &quot;prenom&quot;: &quot;Françoise &quot;,&#xa;    &quot;email&quot;: &quot;&quot;,&#xa;    &quot;commentaires&quot;: &quot;&quot;,&#xa;    &quot;portable&quot;: &quot;&quot;,&#xa;    &quot;fonction&quot;: &quot;Assistante RH&quot;,&#xa;    &quot;statut_bpf&quot;: &quot;salarie&quot;,&#xa;    &quot;date_de_naissance&quot;: &quot;0000-00-00&quot;,&#xa;    &quot;departement_naissance&quot;: &quot;&quot;,&#xa;    &quot;adresse&quot;: &quot;&quot;,&#xa;    &quot;code_postal&quot;: &quot;&quot;,&#xa;    &quot;ville&quot;: &quot;&quot;,&#xa;    &quot;pays&quot;: &quot;&quot;,&#xa;    &quot;id_entreprise&quot;: &quot;4&quot;,&#xa;    &quot;particulier&quot;: &quot;0&quot;,&#xa;    &quot;id_externe&quot;: &quot;&quot;,&#xa;    &quot;newsletter_optin&quot;: &quot;0&quot;,&#xa;    &quot;id_centre_de_formation&quot;: &quot;1,2&quot;,&#xa;    &quot;id_contact&quot;: &quot;&quot;,&#xa;    &quot;responsable_type&quot;: &quot;&quot;,&#xa;    &quot;responsable_id&quot;: &quot;&quot;,&#xa;    &quot;ical_url&quot;: &quot;https://public.dendreo.com/demo/ical/nxlfbn57t75shd1q1h3flzsk5hwctyv77Anfhdxsl4tbhrjz8wb1&quot;,&#xa;    &quot;extranet_url&quot;: &quot;https://extranet.centredemo.com&quot;,&#xa;    &quot;extranet_code&quot;: &quot;012-345-678&quot;,&#xa;    &quot;extranet_autologin_url&quot;: &quot;https://extranet.centredemo.com/autologin/012-345-678&quot;&#xa;  }&#xa;]" style="text;align=left;verticalAlign=top;spacingLeft=4;spacingRight=4;overflow=hidden;rotatable=0;points=[[0,0.5],[1,0.5]];portConstraint=eastwest;" vertex="1" parent="ez0UlG1S_WpzTPGZrJlj-1">
          <mxGeometry y="34" width="600" height="486" as="geometry" />
        </mxCell>
        <mxCell id="ez0UlG1S_WpzTPGZrJlj-5" value="Action de formation" style="swimlane;fontStyle=2;align=center;verticalAlign=top;childLayout=stackLayout;horizontal=1;startSize=26;horizontalStack=0;resizeParent=1;resizeLast=0;collapsible=1;marginBottom=0;rounded=0;shadow=0;strokeWidth=1;" vertex="1" parent="WIyWlLk6GJQsqaUBKTNV-1">
          <mxGeometry x="370" y="40" width="600" height="520" as="geometry">
            <mxRectangle x="230" y="140" width="160" height="26" as="alternateBounds" />
          </mxGeometry>
        </mxCell>
        <mxCell id="ez0UlG1S_WpzTPGZrJlj-6" value="" style="line;html=1;strokeWidth=1;align=left;verticalAlign=middle;spacingTop=-1;spacingLeft=3;spacingRight=3;rotatable=0;labelPosition=right;points=[];portConstraint=eastwest;strokeColor=none;" vertex="1" parent="ez0UlG1S_WpzTPGZrJlj-5">
          <mxGeometry y="26" width="600" height="8" as="geometry" />
        </mxCell>
        <mxCell id="ez0UlG1S_WpzTPGZrJlj-7" value="[&#xa;  {&#xa;    &quot;id_action_de_formation&quot;: &quot;37&quot;,&#xa;    &quot;id_centre_de_formation&quot;: &quot;0&quot;,&#xa;    &quot;id_salle_de_formation&quot;: &quot;0&quot;,&#xa;    &quot;numero&quot;: &quot;1&quot;,&#xa;    &quot;numero_complet&quot;: &quot;&quot;,&#xa;    &quot;numero_comptable&quot;: &quot;&quot;,&#xa;    &quot;type&quot;: &quot;intra&quot;,&#xa;    &quot;intitule&quot;: &quot;Intitulé&quot;,&#xa;    &quot;description&quot;: &quot;Description&quot;,&#xa;    &quot;id_entreprise&quot;: &quot;4&quot;,&#xa;    &quot;id_contact&quot;: &quot;4&quot;,&#xa;    &quot;id_etape_process&quot;: &quot;10&quot;,&#xa;    &quot;date_debut&quot;: &quot;2016-01-20 09:00:00&quot;,&#xa;    &quot;date_fin&quot;: &quot;2016-01-21 16:00:00&quot;,&#xa;    &quot;date_etape_realisation&quot;: &quot;2016-01-23 16:21:44&quot;,&#xa;    &quot;date_etape_archivage&quot;: &quot;2016-02-06 14:17:06&quot;,&#xa;    &quot;date_etape_echec&quot;: &quot;0000-00-00 00:00:00&quot;,&#xa;    &quot;lieu&quot;: &quot;&quot;,&#xa;    &quot;nb_participants_min&quot;: &quot;0&quot;,&#xa;    &quot;nb_participants_max&quot;: &quot;12&quot;,&#xa;    &quot;objectif&quot;: &quot;autre&quot;,&#xa;    &quot;nature&quot;: &quot;2&quot;,&#xa;    &quot;inscription_online&quot;: &quot;1&quot;,&#xa;    &quot;include_in_bpf&quot;: &quot;1&quot;,&#xa;    &quot;total_heures_participants&quot;: &quot;14&quot;,&#xa;    &quot;total_participants&quot;: &quot;10&quot;,&#xa;    &quot;categorie_module_id&quot;: &quot;9&quot;,&#xa;    &quot;ical_url&quot;: &quot;https://public.dendreo.com/demo/ical/nxlfbn57t75shd1q1h3flzsk5hwctyv77Anfhdxsl4tbhrjz8wb1&quot;,&#xa;    &quot;pourcentage_planification&quot;: 70&#xa;  }&#xa;]" style="text;align=left;verticalAlign=top;spacingLeft=4;spacingRight=4;overflow=hidden;rotatable=0;points=[[0,0.5],[1,0.5]];portConstraint=eastwest;" vertex="1" parent="ez0UlG1S_WpzTPGZrJlj-5">
          <mxGeometry y="34" width="600" height="486" as="geometry" />
        </mxCell>
        <mxCell id="ez0UlG1S_WpzTPGZrJlj-8" value="LAE" style="swimlane;fontStyle=2;align=center;verticalAlign=top;childLayout=stackLayout;horizontal=1;startSize=26;horizontalStack=0;resizeParent=1;resizeLast=0;collapsible=1;marginBottom=0;rounded=0;shadow=0;strokeWidth=1;" vertex="1" parent="WIyWlLk6GJQsqaUBKTNV-1">
          <mxGeometry x="390" y="650" width="470" height="320" as="geometry">
            <mxRectangle x="230" y="140" width="160" height="26" as="alternateBounds" />
          </mxGeometry>
        </mxCell>
        <mxCell id="ez0UlG1S_WpzTPGZrJlj-13" value="" style="endArrow=none;startArrow=classic;html=1;rounded=0;entryX=0.678;entryY=-0.009;entryDx=0;entryDy=0;entryPerimeter=0;endFill=0;" edge="1" parent="ez0UlG1S_WpzTPGZrJlj-8" target="ez0UlG1S_WpzTPGZrJlj-8">
          <mxGeometry width="50" height="50" relative="1" as="geometry">
            <mxPoint x="140" y="-90" as="sourcePoint" />
            <mxPoint x="417" y="7" as="targetPoint" />
            <Array as="points">
              <mxPoint x="140" y="-50" />
              <mxPoint x="320" y="-50" />
            </Array>
          </mxGeometry>
        </mxCell>
        <mxCell id="ez0UlG1S_WpzTPGZrJlj-9" value="" style="line;html=1;strokeWidth=1;align=left;verticalAlign=middle;spacingTop=-1;spacingLeft=3;spacingRight=3;rotatable=0;labelPosition=right;points=[];portConstraint=eastwest;strokeColor=none;" vertex="1" parent="ez0UlG1S_WpzTPGZrJlj-8">
          <mxGeometry y="26" width="470" height="8" as="geometry" />
        </mxCell>
        <mxCell id="ez0UlG1S_WpzTPGZrJlj-10" value="{&#xa;    &quot;id_lae&quot;: &quot;876&quot;,&#xa;    &quot;id_add&quot;: &quot;0&quot;,&#xa;    &quot;date_add&quot;: &quot;2019-10-08 14:18:52&quot;,&#xa;    &quot;id_edit&quot;: &quot;0&quot;,&#xa;    &quot;date_edit&quot;: &quot;2019-10-09 15:27:48&quot;,&#xa;    &quot;id_action_de_formation&quot;: &quot;538&quot;,&#xa;    &quot;id_entreprise&quot;: &quot;551&quot;,&#xa;    &quot;mode_financement&quot;: &quot;entreprise&quot;,&#xa;    &quot;id_contact&quot;: &quot;386&quot;,&#xa;    &quot;entreprise&quot;: {&#xa;        &quot;id_entreprise&quot;: &quot;551&quot;,&#xa;        &quot;numero&quot;: &quot;6&quot;,&#xa;        &quot;numero_complet&quot;: &quot;ENT_2019006&quot;,&#xa;        &quot;siret&quot;: &quot;&quot;,&#xa;        &quot;raison_sociale&quot;: &quot;Monnier&quot;,&#xa;        &quot;...&quot;:&#xa;    }&#xa;}" style="text;align=left;verticalAlign=top;spacingLeft=4;spacingRight=4;overflow=hidden;rotatable=0;points=[[0,0.5],[1,0.5]];portConstraint=eastwest;" vertex="1" parent="ez0UlG1S_WpzTPGZrJlj-8">
          <mxGeometry y="34" width="470" height="286" as="geometry" />
        </mxCell>
        <mxCell id="ez0UlG1S_WpzTPGZrJlj-12" value="" style="endArrow=none;startArrow=classic;html=1;rounded=0;exitX=0.3;exitY=1.002;exitDx=0;exitDy=0;exitPerimeter=0;startFill=1;endFill=0;" edge="1" parent="WIyWlLk6GJQsqaUBKTNV-1" source="zkfFHV4jXpPFQw0GAbJ--5">
          <mxGeometry width="50" height="50" relative="1" as="geometry">
            <mxPoint x="280" y="700" as="sourcePoint" />
            <mxPoint x="390" y="798" as="targetPoint" />
            <Array as="points">
              <mxPoint x="110" y="798" />
            </Array>
          </mxGeometry>
        </mxCell>
      </root>
    </mxGraphModel>
  </diagram>
</mxfile>
